<svg xmlns="http://www.w3.org/2000/svg" width="175" height="22" viewBox="0 0 175 22" fill="none">
<g clip-path="url(#clip0_159_66)">
<path d="M8.63568 11.778L1.73145 8.63243L0.0166435 9.43686V12.8016L1.20665 12.2968C1.30373 12.2552 1.72537 12.1609 2.06656 12.3273L7.39801 14.821L7.38135 16.7267L2.38833 14.4327C1.93618 14.1054 1.40914 14.2524 1.30651 14.2663L0.0277392 14.821V16.2274C0.0285347 16.6241 0.102753 16.9043 0.498663 17.1373L9.12692 21.231L17.5843 17.1761C18.0652 16.9063 18.1005 16.6046 18.1003 16.5464V15.5755C18.1214 15.181 18.042 14.9937 17.7396 14.7739L16.7466 14.2912C16.7466 14.2912 16.6162 14.2441 16.4442 14.2441C16.2723 14.2441 16.1225 14.2912 16.1225 14.2912L10.6496 16.7461V14.8099L13.7452 13.362L9.96441 11.6424H9.9049C9.39971 11.7044 9.22351 11.9631 8.63568 11.778Z" fill="#000000"/>
<path d="M17.5204 3.92231L9.07382 0L0.549839 3.85774C0.338159 4.00998 0.147464 4.00006 0 4.54185L0.0199295 5.66956C-0.000544005 5.88731 0.197649 6.27915 0.457799 6.3988L1.41385 6.87244C1.61896 6.93647 1.72841 6.93607 1.91345 6.87244L7.37897 4.45543V6.3988L4.22377 7.82243L7.63845 9.41745C7.68512 9.41725 7.96575 9.56724 8.12942 9.53395L8.67866 9.38245C8.92802 9.29615 9.05501 9.34145 9.19092 9.38245L16.1362 12.5159L18.0613 11.6449V8.28568L16.9351 8.80719C16.7015 8.97012 16.2305 8.9015 16.028 8.8488L10.6133 6.38834L10.6411 4.44658L15.5786 6.7018C15.7475 6.78386 16.1057 6.98749 16.7658 6.89319L18.064 6.30235V4.871C18.064 4.37577 17.939 4.09265 17.5204 3.92231Z" fill="#000000"/>
<path d="M24.9425 5.7165H24.1379V6.5211H24.9425V5.7165ZM24.9425 4.6598V3.8552H24.1379V4.6598H24.9425ZM37.56 4.6598H38.3646V3.8552H37.56V4.6598ZM37.56 5.7165V6.5211H38.3646V5.7165H37.56ZM31.7874 5.7165V4.9119H30.9828V5.7165H31.7874ZM31.7874 17.2772V18.0818H32.592V17.2772H31.7874ZM30.715 17.2772H29.9104V18.0818H30.715V17.2772ZM30.715 5.7165H31.5196V4.9119H30.715V5.7165ZM25.7471 5.7165V4.6598H24.1379V5.7165H25.7471ZM24.9425 5.46439H37.56V3.8552H24.9425V5.46439ZM36.7554 4.6598V5.7165H38.3646V4.6598H36.7554ZM37.56 4.9119H31.7874V6.5211H37.56V4.9119ZM30.9828 5.7165V17.2772H32.592V5.7165H30.9828ZM31.7874 16.4726H30.715V18.0818H31.7874V16.4726ZM31.5196 17.2772V5.7165H29.9104V17.2772H31.5196ZM30.715 4.9119H24.9425V6.5211H30.715V4.9119ZM50.9599 4.6598H51.7645V3.8552H50.9599V4.6598ZM50.9599 5.7165V6.5211H51.7645V5.7165H50.9599ZM39.4307 10.4322L38.6301 10.3497L38.5386 11.2368H39.4307V10.4322ZM50.9599 10.4322H51.7645V9.62765H50.9599V10.4322ZM50.9599 11.5047V12.3093H51.7645V11.5047H50.9599ZM39.4307 11.5047V10.7001H38.5386L38.6301 11.5873L39.4307 11.5047ZM41.1183 14.8641L40.5715 15.4546L40.5749 15.4576L40.5782 15.4606L41.1183 14.8641ZM50.9599 16.2205H51.7645V15.4159H50.9599V16.2205ZM50.9599 17.2772V18.0818H51.7645V17.2772H50.9599ZM40.7566 14.8629C39.6777 13.7842 39.147 12.5013 39.147 10.9685H37.5378C37.5378 12.9265 38.2372 14.6192 39.6187 16.0008L40.7566 14.8629ZM39.147 10.9685C39.147 9.43569 39.6777 8.15279 40.7566 7.07402L39.6187 5.93616C38.2372 7.31778 37.5378 9.01046 37.5378 10.9685H39.147ZM40.7566 7.07402C41.8354 5.99526 43.1184 5.46439 44.6512 5.46439V3.8552C42.693 3.8552 41.0003 4.55449 39.6187 5.93616L40.7566 7.07402ZM44.6512 5.46439H50.9599V3.8552H44.6512V5.46439ZM50.1553 4.6598V5.7165H51.7645V4.6598H50.1553ZM50.9599 4.9119H44.6512V6.5211H50.9599V4.9119ZM44.6512 4.9119C43.0939 4.9119 41.7221 5.44441 40.5749 6.49525L41.6614 7.68227C42.5116 6.90358 43.4955 6.5211 44.6512 6.5211V4.9119ZM40.5752 6.49502C39.4421 7.53147 38.7873 8.82748 38.6301 10.3497L40.2309 10.5148C40.3472 9.38738 40.8176 8.45428 41.6614 7.68227L40.5752 6.49502ZM39.4307 11.2368H50.9599V9.62765H39.4307V11.2368ZM50.1553 10.4322V11.5047H51.7645V10.4322H50.1553ZM50.9599 10.7001H39.4307V12.3093H50.9599V10.7001ZM38.6301 11.5873C38.7873 13.109 39.4414 14.4086 40.5715 15.4546L41.6648 14.2736C40.8182 13.4901 40.3472 12.5501 40.2309 11.4221L38.6301 11.5873ZM40.5782 15.4606C41.7261 16.4998 43.0966 17.0251 44.6512 17.0251V15.4159C43.4929 15.4159 42.5079 15.0369 41.658 14.2676L40.5782 15.4606ZM44.6512 17.0251H50.9599V15.4159H44.6512V17.0251ZM50.1553 16.2205V17.2772H51.7645V16.2205H50.1553ZM50.9599 16.4726H44.6512V18.0818H50.9599V16.4726ZM44.6512 16.4726C43.1184 16.4726 41.8354 15.9417 40.7566 14.8629L39.6187 16.0008C41.0003 17.3825 42.693 18.0818 44.6512 18.0818V16.4726ZM66.7317 17.2772V18.0818H67.5363V17.2772H66.7317ZM65.6746 17.2772H64.87V18.0818H65.6746V17.2772ZM64.9652 8.33459L64.2662 8.73377L64.2683 8.73719L64.2703 8.74058L64.9652 8.33459ZM63.0567 6.42622L62.6507 7.12089L62.654 7.12287L62.6574 7.12478L63.0567 6.42622ZM57.7889 6.42622L58.1882 7.12478L58.1915 7.12287L58.1949 7.12089L57.7889 6.42622ZM55.8646 8.33459L55.1699 7.92864L55.1683 7.93199L55.1662 7.93541L55.8646 8.33459ZM55.1709 17.2772V18.0818H55.9755V17.2772H55.1709ZM54.1142 17.2772H53.3096V18.0818H54.1142V17.2772ZM56.5284 7.07402C57.6072 5.99526 58.8898 5.46439 60.4226 5.46439V3.8552C58.4648 3.8552 56.7721 4.55449 55.3905 5.93616L56.5284 7.07402ZM60.4226 5.46439C61.9557 5.46439 63.2384 5.99526 64.3175 7.07402L65.455 5.93616C64.0735 4.55449 62.3808 3.8552 60.4226 3.8552V5.46439ZM64.3175 7.07402C65.396 8.15279 65.9271 9.43569 65.9271 10.9685H67.5363C67.5363 9.01046 66.8366 7.31778 65.455 5.93616L64.3175 7.07402ZM65.9271 10.9685V17.2772H67.5363V10.9685H65.9271ZM66.7317 16.4726H65.6746V18.0818H66.7317V16.4726ZM66.4792 17.2772V10.9685H64.87V17.2772H66.4792ZM66.4792 10.9685C66.4792 9.88086 66.2053 8.86261 65.6599 7.92864L64.2703 8.74058C64.6709 9.42583 64.87 10.1635 64.87 10.9685H66.4792ZM65.6636 7.93541C65.1295 7.00104 64.3903 6.26155 63.4559 5.72763L62.6574 7.12478C63.3423 7.51615 63.875 8.04893 64.2662 8.73377L65.6636 7.93541ZM63.4626 5.73155C62.5286 5.18573 61.5105 4.9119 60.4226 4.9119V6.5211C61.2279 6.5211 61.9654 6.7204 62.6507 7.12089L63.4626 5.73155ZM60.4226 4.9119C59.3351 4.9119 58.3169 5.18573 57.3829 5.73155L58.1949 7.12089C58.8801 6.7204 59.6177 6.5211 60.4226 6.5211V4.9119ZM57.3896 5.72763C56.4569 6.26064 55.714 6.99799 55.1699 7.92864L56.5595 8.74058C56.9618 8.05198 57.5016 7.51709 58.1882 7.12478L57.3896 5.72763ZM55.1662 7.93541C54.6329 8.86848 54.3663 9.88432 54.3663 10.9685H55.9755C55.9755 10.16 56.1713 9.41996 56.5632 8.73377L55.1662 7.93541ZM54.3663 10.9685V17.2772H55.9755V10.9685H54.3663ZM55.1709 16.4726H54.1142V18.0818H55.1709V16.4726ZM54.9188 17.2772V10.9685H53.3096V17.2772H54.9188ZM54.9188 10.9685C54.9188 9.43569 55.4495 8.15279 56.5284 7.07402L55.3905 5.93616C54.0086 7.31778 53.3096 9.01046 53.3096 10.9685H54.9188ZM82.5035 4.6598H83.3081V3.8552H82.5035V4.6598ZM82.5035 5.7165V6.5211H83.3081V5.7165H82.5035ZM71.6364 9.75407L71.0674 10.323L71.0708 10.3262L71.0741 10.3295L71.6364 9.75407ZM81.494 11.4416L80.9204 12.0061L80.9248 12.0106L80.9295 12.015L81.494 11.4416ZM69.8857 17.2772H69.0811V18.0818H69.8857V17.2772ZM69.8857 16.2205V15.4159H69.0811V16.2205H69.8857ZM80.7524 12.1987L80.1835 12.7676L80.1869 12.7709L80.1902 12.7741L80.7524 12.1987ZM70.8794 10.5111L70.3061 11.0755L70.3104 11.08L70.3148 11.0845L70.8794 10.5111ZM73.3082 5.46439H82.5035V3.8552H73.3082V5.46439ZM81.6989 4.6598V5.7165H83.3081V4.6598H81.6989ZM82.5035 4.9119H73.3082V6.5211H82.5035V4.9119ZM73.3082 4.9119C72.4423 4.9119 71.6803 5.22861 71.0674 5.84151L72.2053 6.97942C72.5177 6.66703 72.8707 6.5211 73.3082 6.5211V4.9119ZM71.0674 5.84151C70.4546 6.45442 70.1378 7.21607 70.1378 8.08225H71.747C71.747 7.64462 71.8932 7.29173 72.2053 6.97942L71.0674 5.84151ZM70.1378 8.08225C70.1378 8.9484 70.4546 9.71009 71.0674 10.323L72.2053 9.18512C71.8932 8.87274 71.747 8.51989 71.747 8.08225H70.1378ZM71.0741 10.3295C71.6883 10.9298 72.448 11.2368 73.3082 11.2368V9.62765C72.8647 9.62765 72.5097 9.48255 72.1989 9.17862L71.0741 10.3295ZM73.3082 11.2368H79.0806V9.62765H73.3082V11.2368ZM79.0806 11.2368C79.8121 11.2368 80.4098 11.4872 80.9204 12.0061L82.0673 10.8772C81.2533 10.0502 80.2419 9.62765 79.0806 9.62765V11.2368ZM80.9295 12.015C81.4481 12.5258 81.6989 13.1235 81.6989 13.8547H83.3081C83.3081 12.6933 82.885 11.6822 82.0582 10.8682L80.9295 12.015ZM81.6989 13.8547C81.6989 14.5863 81.4478 15.1916 80.9248 15.7146L82.0629 16.8525C82.8856 16.0296 83.3081 15.0158 83.3081 13.8547H81.6989ZM80.9248 15.7146C80.4148 16.2244 79.8161 16.4726 79.0806 16.4726V18.0818C80.2378 18.0818 81.2476 17.6675 82.0629 16.8525L80.9248 15.7146ZM79.0806 16.4726H69.8857V18.0818H79.0806V16.4726ZM70.6903 17.2772V16.2205H69.0811V17.2772H70.6903ZM69.8857 17.0251H79.0806V15.4159H69.8857V17.0251ZM79.0806 17.0251C79.9468 17.0251 80.7085 16.7083 81.3214 16.0954L80.1835 14.9575C79.8711 15.2699 79.5184 15.4159 79.0806 15.4159V17.0251ZM81.3214 16.0954C81.9345 15.4825 82.251 14.7209 82.251 13.8547H80.6418C80.6418 14.2923 80.496 14.6452 80.1835 14.9575L81.3214 16.0954ZM82.251 13.8547C82.251 12.9881 81.9335 12.2281 81.315 11.6232L80.1902 12.7741C80.4967 13.0735 80.6418 13.4175 80.6418 13.8547H82.251ZM81.3214 11.6297C80.7085 11.0168 79.9468 10.7001 79.0806 10.7001V12.3093C79.5184 12.3093 79.8711 12.4552 80.1835 12.7676L81.3214 11.6297ZM79.0806 10.7001H73.3082V12.3093H79.0806V10.7001ZM73.3082 10.7001C72.5727 10.7001 71.9659 10.4516 71.4436 9.93772L70.3148 11.0845C71.1388 11.8954 72.1513 12.3093 73.3082 12.3093V10.7001ZM71.453 9.94664C70.9387 9.42462 70.6903 8.81786 70.6903 8.08225H69.0811C69.0811 9.23923 69.4951 10.2517 70.3061 11.0755L71.453 9.94664ZM70.6903 8.08225C70.6903 7.34692 70.9384 6.74793 71.4486 6.23811L70.3104 5.10025C69.4955 5.91527 69.0811 6.92497 69.0811 8.08225H70.6903ZM71.4486 6.23811C71.9716 5.71513 72.5767 5.46439 73.3082 5.46439V3.8552C72.1473 3.8552 71.1335 4.27738 70.3104 5.10025L71.4486 6.23811ZM89.3325 15.5265L88.9265 16.2212L88.9295 16.2231L88.9332 16.2251L89.3325 15.5265ZM94.5999 15.5265L94.9992 16.2251L95.0029 16.2231L95.0059 16.2212L94.5999 15.5265ZM96.5085 13.6024L95.8139 13.1964L95.8118 13.1998L95.8098 13.2032L96.5085 13.6024ZM96.5085 8.33459L95.8098 8.73377L95.8118 8.73719L95.8139 8.74058L96.5085 8.33459ZM94.5999 6.42622L94.1943 7.12089L94.1973 7.12287L94.201 7.12478L94.5999 6.42622ZM89.3325 6.42622L89.7314 7.12478L89.7351 7.12287L89.7381 7.12089L89.3325 6.42622ZM87.4082 8.33459L86.7135 7.92864L86.7115 7.93199L86.7098 7.93541L87.4082 8.33459ZM87.4082 13.6024L86.7098 14.0015L86.7115 14.005L86.7135 14.0083L87.4082 13.6024ZM92.518 10.4165L91.93 10.9655L91.9488 10.9857L91.9695 11.0047L92.518 10.4165ZM91.3986 11.5363L90.8103 12.0853L90.8294 12.1055L90.8495 12.1245L91.3986 11.5363ZM88.0719 7.07402C89.1504 5.99526 90.4334 5.46439 91.9662 5.46439V3.8552C90.0083 3.8552 88.3153 4.55449 86.9338 5.93616L88.0719 7.07402ZM91.9662 5.46439C93.4989 5.46439 94.7819 5.99526 95.8608 7.07402L96.9986 5.93616C95.6171 4.55449 93.924 3.8552 91.9662 3.8552V5.46439ZM95.8608 7.07402C96.9393 8.15279 97.4703 9.43569 97.4703 10.9685H99.0795C99.0795 9.01046 98.3802 7.31778 96.9986 5.93616L95.8608 7.07402ZM97.4703 10.9685C97.4703 12.5013 96.9393 13.7842 95.8608 14.8629L96.9986 16.0008C98.3802 14.6192 99.0795 12.9265 99.0795 10.9685H97.4703ZM95.8608 14.8629C94.7819 15.9417 93.4989 16.4726 91.9662 16.4726V18.0818C93.924 18.0818 95.6171 17.3825 96.9986 16.0008L95.8608 14.8629ZM91.9662 16.4726C90.4334 16.4726 89.1504 15.9417 88.0719 14.8629L86.9338 16.0008C88.3153 17.3825 90.0083 18.0818 91.9662 18.0818V16.4726ZM88.0719 14.8629C86.9931 13.7842 86.4621 12.5013 86.4621 10.9685H84.8529C84.8529 12.9265 85.5522 14.6192 86.9338 16.0008L88.0719 14.8629ZM86.4621 10.9685C86.4621 9.43569 86.9931 8.15279 88.0719 7.07402L86.9338 5.93616C85.5522 7.31778 84.8529 9.01046 84.8529 10.9685H86.4621ZM88.9332 16.2251C89.8662 16.7583 90.882 17.0251 91.9662 17.0251V15.4159C91.1576 15.4159 90.4177 15.22 89.7314 14.8279L88.9332 16.2251ZM91.9662 17.0251C93.0504 17.0251 94.0662 16.7583 94.9992 16.2251L94.201 14.8279C93.5147 15.22 92.7748 15.4159 91.9662 15.4159V17.0251ZM95.0059 16.2212C95.9369 15.6773 96.6738 14.9343 97.2068 14.0015L95.8098 13.2032C95.4176 13.8896 94.8829 14.4294 94.1943 14.8318L95.0059 16.2212ZM97.2035 14.0083C97.7489 13.0743 98.0228 12.0561 98.0228 10.9685H96.4136C96.4136 11.7735 96.2145 12.5111 95.8139 13.1964L97.2035 14.0083ZM98.0228 10.9685C98.0228 9.88086 97.7489 8.86261 97.2035 7.92864L95.8139 8.74058C96.2145 9.42583 96.4136 10.1635 96.4136 10.9685H98.0228ZM97.2068 7.93541C96.6731 7.00104 95.9335 6.26155 94.9992 5.72763L94.201 7.12478C94.8855 7.51615 95.4186 8.04893 95.8098 8.73377L97.2068 7.93541ZM95.0059 5.73155C94.0722 5.18573 93.0541 4.9119 91.9662 4.9119V6.5211C92.7711 6.5211 93.509 6.7204 94.1943 7.12089L95.0059 5.73155ZM91.9662 4.9119C90.8786 4.9119 89.8602 5.18573 88.9265 5.73155L89.7381 7.12089C90.4234 6.7204 91.1613 6.5211 91.9662 6.5211V4.9119ZM88.9332 5.72763C88.0002 6.26064 87.2573 6.99799 86.7135 7.92864L88.1028 8.74058C88.5051 8.05198 89.0452 7.51709 89.7314 7.12478L88.9332 5.72763ZM86.7098 7.93541C86.1764 8.86848 85.9096 9.88432 85.9096 10.9685H87.5188C87.5188 10.16 87.7146 9.41996 88.1068 8.73377L86.7098 7.93541ZM85.9096 10.9685C85.9096 12.0526 86.1764 13.0685 86.7098 14.0015L88.1068 13.2032C87.7146 12.517 87.5188 11.7769 87.5188 10.9685H85.9096ZM86.7135 14.0083C87.2566 14.9374 87.9972 15.6782 88.9265 16.2212L89.7381 14.8318C89.0482 14.4285 88.5061 13.8866 88.1028 13.1964L86.7135 14.0083ZM91.9695 11.0047C91.9719 11.0071 91.9702 11.0062 91.9669 11.0014C91.9635 10.9966 91.9598 10.9898 91.9561 10.9818C91.9524 10.9738 91.9508 10.9673 91.9501 10.9636C91.9498 10.9601 91.9501 10.9613 91.9501 10.9685H93.5593C93.5593 10.5306 93.3923 10.1317 93.0671 9.82823L91.9695 11.0047ZM91.9501 10.9685C91.9501 10.9756 91.9498 10.9778 91.9501 10.9762C91.9501 10.9755 91.9504 10.9742 91.9508 10.9724C91.9514 10.9706 91.9521 10.9686 91.9528 10.9665C91.9538 10.9645 91.9545 10.9628 91.9555 10.9613C91.9561 10.9599 91.9568 10.959 91.9568 10.9588C91.9575 10.9582 91.9555 10.9612 91.9494 10.9673L93.0869 12.1052C93.394 11.7983 93.5593 11.4051 93.5593 10.9685H91.9501ZM91.9494 10.9673C91.9481 10.9683 91.9501 10.9665 91.9545 10.9634C91.9595 10.9602 91.9649 10.9572 91.9709 10.9548C91.9769 10.9525 91.9806 10.9517 91.9809 10.9516C91.9809 10.9516 91.9766 10.9525 91.9662 10.9525V12.5616C92.3863 12.5616 92.7792 12.4132 93.0869 12.1052L91.9494 10.9673ZM91.9662 10.9525C91.9558 10.9525 91.9504 10.9516 91.9484 10.9513C91.9474 10.951 91.9481 10.9511 91.9501 10.952C91.9524 10.9529 91.9541 10.9538 91.9545 10.954C91.9548 10.9543 91.9524 10.9528 91.9474 10.948L90.8495 12.1245C91.1599 12.4143 91.5471 12.5616 91.9662 12.5616V10.9525ZM91.9866 10.9873C91.9819 10.9822 91.9803 10.9798 91.9806 10.9801C91.9809 10.9805 91.982 10.9821 91.9826 10.9844C91.9836 10.9866 91.9836 10.9876 91.9836 10.986C91.983 10.9844 91.9823 10.9789 91.9823 10.9685H90.3731C90.3731 11.3878 90.5203 11.7747 90.8103 12.0853L91.9866 10.9873ZM91.9823 10.9685C91.9823 10.9581 91.983 10.9535 91.983 10.9537C91.983 10.9541 91.9823 10.9578 91.9799 10.9637C91.9776 10.9697 91.9746 10.9753 91.9716 10.9801C91.9682 10.9847 91.9662 10.9864 91.9675 10.9854L90.8297 9.84751C90.5216 10.1555 90.3731 10.5486 90.3731 10.9685H91.9823ZM91.9675 10.9854C91.9736 10.9793 91.9766 10.9774 91.9759 10.9777C91.9759 10.9779 91.9746 10.9785 91.9736 10.9793C91.9719 10.98 91.9702 10.9809 91.9682 10.9818C91.9662 10.9826 91.9642 10.9833 91.9622 10.9838C91.9605 10.9844 91.9595 10.9846 91.9585 10.9848C91.9568 10.9851 91.9588 10.9845 91.9662 10.9845V9.37531C91.5297 9.37531 91.1361 9.54065 90.8297 9.84751L91.9675 10.9854ZM91.9662 10.9845C91.9736 10.9845 91.9746 10.9851 91.9709 10.9844C91.9675 10.9837 91.9608 10.982 91.9528 10.9786C91.9447 10.9751 91.938 10.9712 91.9333 10.9677C91.9283 10.9643 91.9276 10.9628 91.93 10.9655L93.1064 9.86745C92.803 9.54246 92.4044 9.37531 91.9662 9.37531V10.9845ZM113.605 9.75407L112.906 9.35486L112.904 9.35962L113.605 9.75407ZM112.454 10.9685L112.024 10.2878L110.945 10.9685L112.024 11.6491L112.454 10.9685ZM113.605 12.1987L112.9 12.587L112.905 12.5956L112.91 12.6041L113.605 12.1987ZM114.047 17.2772V18.0818H114.851V17.2772H114.047ZM112.99 17.2772H112.185V18.0818H112.99V17.2772ZM112.296 12.1987L111.727 12.7676L111.73 12.7709L111.733 12.7741L112.296 12.1987ZM102.486 11.5047V10.7001H101.681V11.5047H102.486ZM102.486 17.2772V18.0818H103.291V17.2772H102.486ZM101.429 17.2772H100.624V18.0818H101.429V17.2772ZM101.429 4.6598V3.8552H100.624V4.6598H101.429ZM113.037 5.66916L112.464 6.23362L112.468 6.23815L112.473 6.24257L113.037 5.66916ZM102.486 5.7165V4.9119H101.681V5.7165H102.486ZM102.486 10.4322H101.681V11.2368H102.486V10.4322ZM112.296 9.75407L112.858 10.3295L112.862 10.3262L112.865 10.323L112.296 9.75407ZM113.242 8.08225C113.242 8.54302 113.131 8.96248 112.906 9.35486L114.303 10.1533C114.668 9.51521 114.851 8.82014 114.851 8.08225H113.242ZM112.904 9.35962C112.685 9.74931 112.394 10.0552 112.024 10.2878L112.883 11.6491C113.481 11.2719 113.958 10.7682 114.306 10.1485L112.904 9.35962ZM112.024 11.6491C112.39 11.8793 112.68 12.1874 112.9 12.587L114.31 11.8104C113.962 11.1796 113.485 10.6675 112.883 10.2878L112.024 11.6491ZM112.91 12.6041C113.131 12.9825 113.242 13.394 113.242 13.8547H114.851C114.851 13.1168 114.668 12.4243 114.3 11.7933L112.91 12.6041ZM113.242 13.8547V17.2772H114.851V13.8547H113.242ZM114.047 16.4726H112.99V18.0818H114.047V16.4726ZM113.795 17.2772V13.8547H112.185V17.2772H113.795ZM113.795 13.8547C113.795 12.9881 113.477 12.2281 112.858 11.6232L111.733 12.7741C112.04 13.0735 112.185 13.4175 112.185 13.8547H113.795ZM112.865 11.6297C112.252 11.0168 111.49 10.7001 110.624 10.7001V12.3093C111.062 12.3093 111.414 12.4552 111.727 12.7676L112.865 11.6297ZM110.624 10.7001H102.486V12.3093H110.624V10.7001ZM101.681 11.5047V17.2772H103.291V11.5047H101.681ZM102.486 16.4726H101.429V18.0818H102.486V16.4726ZM102.234 17.2772V4.6598H100.624V17.2772H102.234ZM101.429 5.46439H110.624V3.8552H101.429V5.46439ZM110.624 5.46439C111.355 5.46439 111.953 5.71472 112.464 6.23362L113.611 5.10474C112.797 4.27781 111.785 3.8552 110.624 3.8552V5.46439ZM112.473 6.24257C112.992 6.75339 113.242 7.35101 113.242 8.08225H114.851C114.851 6.92088 114.429 5.9098 113.602 5.09579L112.473 6.24257ZM101.681 5.7165V10.4322H103.291V5.7165H101.681ZM102.486 11.2368H110.624V9.62765H102.486V11.2368ZM110.624 11.2368C111.484 11.2368 112.244 10.9298 112.858 10.3295L111.733 9.17862C111.423 9.48255 111.068 9.62765 110.624 9.62765V11.2368ZM112.865 10.323C113.478 9.71009 113.795 8.9484 113.795 8.08225H112.185C112.185 8.51989 112.039 8.87274 111.727 9.18512L112.865 10.323ZM113.795 8.08225C113.795 7.21607 113.478 6.45442 112.865 5.84151L111.727 6.97942C112.039 7.29173 112.185 7.64462 112.185 8.08225H113.795ZM112.865 5.84151C112.252 5.22861 111.49 4.9119 110.624 4.9119V6.5211C111.062 6.5211 111.414 6.66703 111.727 6.97942L112.865 5.84151ZM110.624 4.9119H102.486V6.5211H110.624V4.9119ZM129.818 4.6598H130.623V3.8552H129.818V4.6598ZM129.818 5.7165V6.5211H130.623V5.7165H129.818ZM118.952 9.75407L118.383 10.323L118.386 10.3262L118.389 10.3295L118.952 9.75407ZM128.809 11.4416L128.235 12.0061L128.24 12.0106L128.245 12.015L128.809 11.4416ZM117.201 17.2772H116.396V18.0818H117.201V17.2772ZM117.201 16.2205V15.4159H116.396V16.2205H117.201ZM128.068 12.1987L127.499 12.7676L127.502 12.7709L127.505 12.7741L128.068 12.1987ZM118.194 10.5111L117.621 11.0755L117.625 11.08L117.63 11.0845L118.194 10.5111ZM120.624 5.46439H129.818V3.8552H120.624V5.46439ZM129.014 4.6598V5.7165H130.623V4.6598H129.014ZM129.818 4.9119H120.624V6.5211H129.818V4.9119ZM120.624 4.9119C119.757 4.9119 118.995 5.22861 118.383 5.84151L119.52 6.97942C119.833 6.66703 120.186 6.5211 120.624 6.5211V4.9119ZM118.383 5.84151C117.77 6.45442 117.453 7.21607 117.453 8.08225H119.062C119.062 7.64462 119.208 7.29173 119.52 6.97942L118.383 5.84151ZM117.453 8.08225C117.453 8.9484 117.77 9.71009 118.383 10.323L119.52 9.18512C119.208 8.87274 119.062 8.51989 119.062 8.08225H117.453ZM118.389 10.3295C119.003 10.9298 119.763 11.2368 120.624 11.2368V9.62765C120.18 9.62765 119.825 9.48255 119.514 9.17862L118.389 10.3295ZM120.624 11.2368H126.396V9.62765H120.624V11.2368ZM126.396 11.2368C127.127 11.2368 127.725 11.4872 128.235 12.0061L129.382 10.8772C128.568 10.0502 127.557 9.62765 126.396 9.62765V11.2368ZM128.245 12.015C128.763 12.5258 129.014 13.1235 129.014 13.8547H130.623C130.623 12.6933 130.2 11.6822 129.374 10.8682L128.245 12.015ZM129.014 13.8547C129.014 14.5863 128.763 15.1916 128.24 15.7146L129.378 16.8525C130.201 16.0296 130.623 15.0158 130.623 13.8547H129.014ZM128.24 15.7146C127.73 16.2244 127.131 16.4726 126.396 16.4726V18.0818C127.553 18.0818 128.563 17.6675 129.378 16.8525L128.24 15.7146ZM126.396 16.4726H117.201V18.0818H126.396V16.4726ZM118.005 17.2772V16.2205H116.396V17.2772H118.005ZM117.201 17.0251H126.396V15.4159H117.201V17.0251ZM126.396 17.0251C127.262 17.0251 128.024 16.7083 128.636 16.0954L127.499 14.9575C127.186 15.2699 126.833 15.4159 126.396 15.4159V17.0251ZM128.636 16.0954C129.25 15.4825 129.566 14.7209 129.566 13.8547H127.957C127.957 14.2923 127.811 14.6452 127.499 14.9575L128.636 16.0954ZM129.566 13.8547C129.566 12.9881 129.249 12.2281 128.63 11.6232L127.505 12.7741C127.812 13.0735 127.957 13.4175 127.957 13.8547H129.566ZM128.636 11.6297C128.024 11.0168 127.262 10.7001 126.396 10.7001V12.3093C126.833 12.3093 127.186 12.4552 127.499 12.7676L128.636 11.6297ZM126.396 10.7001H120.624V12.3093H126.396V10.7001ZM120.624 10.7001C119.888 10.7001 119.281 10.4516 118.759 9.93772L117.63 11.0845C118.454 11.8954 119.467 12.3093 120.624 12.3093V10.7001ZM118.768 9.94664C118.254 9.42462 118.005 8.81786 118.005 8.08225H116.396C116.396 9.23923 116.81 10.2517 117.621 11.0755L118.768 9.94664ZM118.005 8.08225C118.005 7.34692 118.253 6.74793 118.764 6.23811L117.625 5.10025C116.81 5.91527 116.396 6.92497 116.396 8.08225H118.005ZM118.764 6.23811C119.287 5.71513 119.892 5.46439 120.624 5.46439V3.8552C119.463 3.8552 118.449 4.27738 117.625 5.10025L118.764 6.23811ZM132.973 5.7165H132.168V6.5211H132.973V5.7165ZM132.973 4.6598V3.8552H132.168V4.6598H132.973ZM145.59 4.6598H146.395V3.8552H145.59V4.6598ZM145.59 5.7165V6.5211H146.395V5.7165H145.59ZM139.818 5.7165V4.9119H139.013V5.7165H139.818ZM139.818 17.2772V18.0818H140.622V17.2772H139.818ZM138.745 17.2772H137.941V18.0818H138.745V17.2772ZM138.745 5.7165H139.55V4.9119H138.745V5.7165ZM133.777 5.7165V4.6598H132.168V5.7165H133.777ZM132.973 5.46439H145.59V3.8552H132.973V5.46439ZM144.786 4.6598V5.7165H146.395V4.6598H144.786ZM145.59 4.9119H139.818V6.5211H145.59V4.9119ZM139.013 5.7165V17.2772H140.622V5.7165H139.013ZM139.818 16.4726H138.745V18.0818H139.818V16.4726ZM139.55 17.2772V5.7165H137.941V17.2772H139.55ZM138.745 4.9119H132.973V6.5211H138.745V4.9119ZM144.17 17.2772L143.469 16.8827L142.794 18.0818H144.17V17.2772ZM151.267 4.6598L151.969 4.26598L151.268 3.01724L150.566 4.26534L151.267 4.6598ZM158.349 17.2772V18.0818H159.723L159.05 16.8833L158.349 17.2772ZM157.055 17.2772L156.354 17.6704L156.584 18.0818H157.055V17.2772ZM151.267 6.9467L151.969 6.55338L151.268 5.30233L150.566 6.55258L151.267 6.9467ZM145.464 17.2772V18.0818H145.934L146.165 17.6712L145.464 17.2772ZM144.871 17.6716L151.969 5.05425L150.566 4.26534L143.469 16.8827L144.871 17.6716ZM150.566 5.05358L157.647 17.671L159.05 16.8833L151.969 4.26598L150.566 5.05358ZM158.349 16.4726H157.055V18.0818H158.349V16.4726ZM157.757 16.8839L151.969 6.55338L150.565 7.33998L156.354 17.6704L157.757 16.8839ZM150.566 6.55258L144.762 16.8831L146.165 17.6712L151.969 7.34078L150.566 6.55258ZM145.464 16.4726H144.17V18.0818H145.464V16.4726ZM171.677 4.6598V3.8552H171.314L171.073 4.12772L171.677 4.6598ZM173.175 4.6598L173.778 5.19217L174.958 3.8552H173.175V4.6598ZM167.607 10.9685L167.005 10.4361L166.535 10.9685L167.005 11.5009L167.607 10.9685ZM173.175 17.2772V18.0818H174.958L173.778 16.7448L173.175 17.2772ZM171.677 17.2772L171.073 17.8092L171.314 18.0818H171.677V17.2772ZM166.867 11.8201L167.47 11.2881L166.867 10.6034L166.263 11.2881L166.867 11.8201ZM162.056 17.2772V18.0818H162.419L162.66 17.8092L162.056 17.2772ZM160.558 17.2772L159.955 16.7448L158.775 18.0818H160.558V17.2772ZM166.125 10.9685L166.728 11.5009L167.198 10.9685L166.728 10.4361L166.125 10.9685ZM160.558 4.6598V3.8552H158.775L159.955 5.19217L160.558 4.6598ZM162.056 4.6598L162.66 4.12772L162.419 3.8552H162.056V4.6598ZM166.867 10.1168L166.263 10.6489L166.867 11.3336L167.47 10.6489L166.867 10.1168ZM171.677 5.46439H173.175V3.8552H171.677V5.46439ZM172.572 4.12739L167.005 10.4361L168.211 11.5009L173.778 5.19217L172.572 4.12739ZM167.005 11.5009L172.572 17.8096L173.778 16.7448L168.211 10.4361L167.005 11.5009ZM173.175 16.4726H171.677V18.0818H173.175V16.4726ZM172.28 16.7451L167.47 11.2881L166.263 12.3522L171.073 17.8092L172.28 16.7451ZM166.263 11.2881L161.452 16.7451L162.66 17.8092L167.47 12.3522L166.263 11.2881ZM162.056 16.4726H160.558V18.0818H162.056V16.4726ZM161.161 17.8096L166.728 11.5009L165.522 10.4361L159.955 16.7448L161.161 17.8096ZM166.728 10.4361L161.161 4.12739L159.955 5.19217L165.522 11.5009L166.728 10.4361ZM160.558 5.46439H162.056V3.8552H160.558V5.46439ZM161.452 5.19184L166.263 10.6489L167.47 9.58477L162.66 4.12772L161.452 5.19184ZM167.47 10.6489L172.28 5.19184L171.073 4.12772L166.263 9.58477L167.47 10.6489Z" fill="#000000"/>
</g>
<defs fill="#000000">
<clipPath id="clip0_159_66" fill="#000000">
<rect width="175" height="21.4559" fill="white"/>
</clipPath>
</defs>
</svg>